<svg xmlns="http://www.w3.org/2000/svg" xmlns:xlink="http://www.w3.org/1999/xlink" width="500" zoomAndPan="magnify" viewBox="0 0 375 112.499997" height="150" preserveAspectRatio="xMidYMid meet" version="1.0"><defs><g/><clipPath id="2a5b9c1e93"><path d="M 0.828125 0 L 374.167969 0 L 374.167969 112.003906 L 0.828125 112.003906 Z M 0.828125 0 " clip-rule="nonzero"/></clipPath><clipPath id="8add34fbf4"><path d="M 12.03125 61 L 67 61 L 67 100.800781 L 12.03125 100.800781 Z M 12.03125 61 " clip-rule="nonzero"/></clipPath><clipPath id="25e414ef70"><path d="M 13 11.199219 L 101.632812 11.199219 L 101.632812 100 L 13 100 Z M 13 11.199219 " clip-rule="nonzero"/></clipPath></defs><g clip-path="url(#2a5b9c1e93)"><path fill="#ffffff" d="M 0.828125 0 L 374.171875 0 L 374.171875 112.003906 L 0.828125 112.003906 Z M 0.828125 0 " fill-opacity="1" fill-rule="nonzero"/><path fill="#ffffff" d="M 0.828125 0 L 374.171875 0 L 374.171875 112.003906 L 0.828125 112.003906 Z M 0.828125 0 " fill-opacity="1" fill-rule="nonzero"/></g><g clip-path="url(#8add34fbf4)"><path fill="#2ecad6" d="M 30.8125 71.625 C 23.304688 68.488281 17.136719 65.058594 12.085938 61.46875 C 12.257812 62.875 12.492188 64.261719 12.789062 65.625 C 17.722656 68.859375 23.351562 71.804688 29.636719 74.433594 C 41.589844 79.429688 49.605469 85.507812 54.578125 90.242188 C 41.367188 80.976562 25.542969 76.957031 20.0625 75.039062 C 18.410156 74.460938 16.78125 73.867188 15.191406 73.242188 C 21.945312 89.425781 37.921875 100.800781 56.554688 100.800781 C 59.820312 100.800781 63.007812 100.449219 66.082031 99.785156 C 64.804688 97.363281 55.992188 82.160156 30.8125 71.625 " fill-opacity="1" fill-rule="nonzero"/></g><g clip-path="url(#25e414ef70)"><path fill="#5271ff" d="M 56.554688 11.203125 C 39.214844 11.203125 24.175781 21.054688 16.730469 35.464844 C 21 40.03125 26.390625 44.761719 33.144531 49.609375 C 52.425781 63.441406 59.460938 76.957031 61.738281 82.691406 C 57.464844 76.0625 49.277344 66.367188 34.316406 57.125 C 25.726562 51.824219 19.171875 46.507812 14.21875 41.308594 C 13.878906 42.289062 13.574219 43.28125 13.300781 44.289062 C 21.40625 52.144531 31.066406 58.550781 40.023438 65.21875 C 62.390625 81.867188 65.78125 97.25 66.195312 99.757812 C 66.867188 99.613281 67.527344 99.449219 68.183594 99.273438 C 68.460938 83.253906 57.59375 62.378906 35.046875 48.433594 C 35.054688 48.433594 35.0625 48.429688 35.066406 48.429688 C 46.757812 53.683594 54.347656 50.679688 54.347656 50.679688 C 48.59375 51.328125 41.332031 48.351562 39.167969 44.746094 C 45.515625 47.769531 53.601562 39.113281 64.832031 41.632812 C 64.832031 41.632812 60.570312 39.304688 52.652344 40.320312 C 46.761719 36.046875 44.007812 29.03125 44.007812 29.03125 C 50.496094 33.34375 60.238281 34.949219 65.96875 34.566406 C 75.546875 33.925781 83.085938 39.335938 85.597656 44.25 C 88.777344 50.472656 85.957031 50.199219 84.726562 49.617188 C 71.84375 43.535156 73.449219 51.238281 82.285156 50.597656 C 98.195312 49.441406 95.824219 64.238281 95.824219 64.238281 C 89.574219 51.480469 71.203125 62.707031 68.546875 74.285156 C 66.992188 81.058594 70.988281 84.261719 70.898438 92.960938 C 70.878906 95.039062 70.628906 96.957031 70.269531 98.660156 C 88.300781 92.867188 101.351562 75.957031 101.351562 56 C 101.351562 31.257812 81.292969 11.203125 56.554688 11.203125 " fill-opacity="1" fill-rule="nonzero"/></g><g fill="#5e7ff4" fill-opacity="1"><g transform="translate(316.997292, 51.272121)"><g><path d="M 16.71875 -12.734375 L 16.71875 -9.5625 C 16.71875 -9.113281 16.5625 -8.734375 16.25 -8.421875 C 15.9375 -8.117188 15.5625 -7.96875 15.125 -7.96875 C 15.5625 -7.96875 15.9375 -7.8125 16.25 -7.5 C 16.5625 -7.1875 16.71875 -6.8125 16.71875 -6.375 L 16.71875 -3.1875 C 16.71875 -2.613281 16.570312 -2.082031 16.28125 -1.59375 C 16 -1.113281 15.617188 -0.726562 15.140625 -0.4375 C 14.671875 -0.144531 14.132812 0 13.53125 0 L 0.796875 0 L 0.796875 -3.1875 L 13.53125 -3.1875 L 13.53125 -6.375 L 0.796875 -6.375 L 0.796875 -9.5625 L 13.53125 -9.5625 L 13.53125 -12.734375 L 0.796875 -12.734375 L 0.796875 -15.921875 L 13.53125 -15.921875 C 14.132812 -15.921875 14.671875 -15.773438 15.140625 -15.484375 C 15.617188 -15.191406 16 -14.804688 16.28125 -14.328125 C 16.570312 -13.847656 16.71875 -13.316406 16.71875 -12.734375 Z M 16.71875 -12.734375 "/></g></g></g><g fill="#5e7ff4" fill-opacity="1"><g transform="translate(334.512505, 51.272121)"><g><path d="M 13.53125 0 L 3.984375 0 C 3.398438 0 2.863281 -0.140625 2.375 -0.421875 C 1.894531 -0.710938 1.507812 -1.097656 1.21875 -1.578125 C 0.9375 -2.066406 0.796875 -2.601562 0.796875 -3.1875 L 0.796875 -12.734375 C 0.796875 -13.316406 0.9375 -13.847656 1.21875 -14.328125 C 1.507812 -14.816406 1.894531 -15.203125 2.375 -15.484375 C 2.863281 -15.773438 3.398438 -15.921875 3.984375 -15.921875 L 16.71875 -15.921875 L 16.71875 -12.734375 L 3.984375 -12.734375 L 3.984375 -9.5625 L 13.53125 -9.5625 C 14.113281 -9.5625 14.644531 -9.414062 15.125 -9.125 C 15.613281 -8.84375 16 -8.457031 16.28125 -7.96875 C 16.570312 -7.488281 16.71875 -6.957031 16.71875 -6.375 L 16.71875 -3.1875 C 16.71875 -2.601562 16.570312 -2.066406 16.28125 -1.578125 C 16 -1.097656 15.613281 -0.710938 15.125 -0.421875 C 14.644531 -0.140625 14.113281 0 13.53125 0 Z M 3.984375 -6.375 L 3.984375 -3.1875 L 13.53125 -3.1875 L 13.53125 -6.375 Z M 3.984375 -6.375 "/></g></g></g><g fill="#5e7ff4" fill-opacity="1"><g transform="translate(352.027718, 51.272121)"><g><path d="M 13.53125 0 L 0.796875 0 L 0.796875 -3.1875 L 13.53125 -3.1875 L 13.53125 -6.375 L 0.796875 -6.375 L 0.796875 -15.921875 L 16.71875 -15.921875 L 16.71875 -12.734375 L 3.984375 -12.734375 L 3.984375 -9.5625 L 13.53125 -9.5625 C 14.113281 -9.5625 14.644531 -9.414062 15.125 -9.125 C 15.613281 -8.84375 16 -8.457031 16.28125 -7.96875 C 16.570312 -7.488281 16.71875 -6.957031 16.71875 -6.375 L 16.71875 -3.1875 C 16.71875 -2.601562 16.570312 -2.066406 16.28125 -1.578125 C 16 -1.097656 15.613281 -0.710938 15.125 -0.421875 C 14.644531 -0.140625 14.113281 0 13.53125 0 Z M 13.53125 0 "/></g></g></g><g fill="#4acfd9" fill-opacity="1"><g transform="translate(111.365749, 77.281521)"><g><path d="M 31.296875 -7.78125 L 14.859375 -7.78125 L 12.234375 0 L 1 0 L 16.9375 -44.03125 L 29.359375 -44.03125 L 45.28125 0 L 33.9375 0 Z M 28.53125 -16.0625 L 23.078125 -32.171875 L 17.6875 -16.0625 Z M 28.53125 -16.0625 "/></g></g></g><g fill="#4acfd9" fill-opacity="1"><g transform="translate(162.107286, 77.281521)"><g><path d="M 33.109375 -30.109375 C 32.316406 -31.566406 31.175781 -32.679688 29.6875 -33.453125 C 28.207031 -34.234375 26.460938 -34.625 24.453125 -34.625 C 20.984375 -34.625 18.203125 -33.484375 16.109375 -31.203125 C 14.023438 -28.921875 12.984375 -25.878906 12.984375 -22.078125 C 12.984375 -18.023438 14.078125 -14.859375 16.265625 -12.578125 C 18.460938 -10.296875 21.488281 -9.15625 25.34375 -9.15625 C 27.976562 -9.15625 30.203125 -9.820312 32.015625 -11.15625 C 33.835938 -12.5 35.164062 -14.425781 36 -16.9375 L 22.390625 -16.9375 L 22.390625 -24.84375 L 45.71875 -24.84375 L 45.71875 -14.859375 C 44.925781 -12.179688 43.578125 -9.691406 41.671875 -7.390625 C 39.773438 -5.097656 37.363281 -3.238281 34.4375 -1.8125 C 31.507812 -0.394531 28.203125 0.3125 24.515625 0.3125 C 20.171875 0.3125 16.296875 -0.632812 12.890625 -2.53125 C 9.484375 -4.4375 6.828125 -7.082031 4.921875 -10.46875 C 3.015625 -13.851562 2.0625 -17.722656 2.0625 -22.078125 C 2.0625 -26.421875 3.015625 -30.296875 4.921875 -33.703125 C 6.828125 -37.117188 9.472656 -39.773438 12.859375 -41.671875 C 16.242188 -43.578125 20.109375 -44.53125 24.453125 -44.53125 C 29.722656 -44.53125 34.164062 -43.253906 37.78125 -40.703125 C 41.40625 -38.148438 43.800781 -34.617188 44.96875 -30.109375 Z M 33.109375 -30.109375 "/></g></g></g><g fill="#4acfd9" fill-opacity="1"><g transform="translate(214.416859, 77.281521)"><g><path d="M 14.609375 -44.03125 L 14.609375 0 L 3.890625 0 L 3.890625 -44.03125 Z M 14.609375 -44.03125 "/></g></g></g><g fill="#4acfd9" fill-opacity="1"><g transform="translate(237.435576, 77.281521)"><g><path d="M 14.609375 -8.28125 L 28.65625 -8.28125 L 28.65625 0 L 3.890625 0 L 3.890625 -44.03125 L 14.609375 -44.03125 Z M 14.609375 -8.28125 "/></g></g></g><g fill="#4acfd9" fill-opacity="1"><g transform="translate(271.869577, 77.281521)"><g><path d="M 31.296875 -7.78125 L 14.859375 -7.78125 L 12.234375 0 L 1 0 L 16.9375 -44.03125 L 29.359375 -44.03125 L 45.28125 0 L 33.9375 0 Z M 28.53125 -16.0625 L 23.078125 -32.171875 L 17.6875 -16.0625 Z M 28.53125 -16.0625 "/></g></g></g></svg>